<mxfile host="app.diagrams.net" modified="2023-08-29T06:40:26.318Z" agent="Mozilla/5.0 (Windows NT 10.0; Win64; x64) AppleWebKit/537.36 (KHTML, like Gecko) Chrome/116.0.0.0 Safari/537.36 Edg/116.0.1938.62" etag="c3oPUVaYuWNFSvoMZWEC" version="21.6.8" type="github">
  <diagram name="Page-1" id="uQQWVTF0BA72KD0kjfdC">
    <mxGraphModel dx="794" dy="1530" grid="1" gridSize="10" guides="1" tooltips="1" connect="1" arrows="1" fold="1" page="1" pageScale="1" pageWidth="850" pageHeight="1100" math="0" shadow="0">
      <root>
        <mxCell id="0" />
        <mxCell id="1" parent="0" />
        <mxCell id="3rZMmuK3PUWSVSzUeQz1-1" value="AWS Cloud" style="points=[[0,0],[0.25,0],[0.5,0],[0.75,0],[1,0],[1,0.25],[1,0.5],[1,0.75],[1,1],[0.75,1],[0.5,1],[0.25,1],[0,1],[0,0.75],[0,0.5],[0,0.25]];outlineConnect=0;gradientColor=none;html=1;whiteSpace=wrap;fontSize=12;fontStyle=0;container=1;pointerEvents=0;collapsible=0;recursiveResize=0;shape=mxgraph.aws4.group;grIcon=mxgraph.aws4.group_aws_cloud;strokeColor=#232F3E;fillColor=none;verticalAlign=top;align=left;spacingLeft=30;fontColor=#232F3E;dashed=0;" vertex="1" parent="1">
          <mxGeometry x="440" y="-540" width="290" height="360" as="geometry" />
        </mxCell>
        <mxCell id="3rZMmuK3PUWSVSzUeQz1-6" value="Region" style="points=[[0,0],[0.25,0],[0.5,0],[0.75,0],[1,0],[1,0.25],[1,0.5],[1,0.75],[1,1],[0.75,1],[0.5,1],[0.25,1],[0,1],[0,0.75],[0,0.5],[0,0.25]];outlineConnect=0;gradientColor=none;html=1;whiteSpace=wrap;fontSize=12;fontStyle=0;container=1;pointerEvents=0;collapsible=0;recursiveResize=0;shape=mxgraph.aws4.group;grIcon=mxgraph.aws4.group_region;strokeColor=#147EBA;fillColor=none;verticalAlign=top;align=left;spacingLeft=30;fontColor=#147EBA;dashed=1;" vertex="1" parent="3rZMmuK3PUWSVSzUeQz1-1">
          <mxGeometry x="20" y="20" width="250" height="320" as="geometry" />
        </mxCell>
        <mxCell id="3rZMmuK3PUWSVSzUeQz1-8" value="VPC" style="points=[[0,0],[0.25,0],[0.5,0],[0.75,0],[1,0],[1,0.25],[1,0.5],[1,0.75],[1,1],[0.75,1],[0.5,1],[0.25,1],[0,1],[0,0.75],[0,0.5],[0,0.25]];outlineConnect=0;gradientColor=none;html=1;whiteSpace=wrap;fontSize=12;fontStyle=0;container=1;pointerEvents=0;collapsible=0;recursiveResize=0;shape=mxgraph.aws4.group;grIcon=mxgraph.aws4.group_vpc;strokeColor=#248814;fillColor=none;verticalAlign=top;align=left;spacingLeft=30;fontColor=#AAB7B8;dashed=0;" vertex="1" parent="3rZMmuK3PUWSVSzUeQz1-6">
          <mxGeometry x="20" y="20" width="210" height="280" as="geometry" />
        </mxCell>
        <mxCell id="3rZMmuK3PUWSVSzUeQz1-9" value="Availability Zone" style="fillColor=none;strokeColor=#147EBA;dashed=1;verticalAlign=top;fontStyle=0;fontColor=#147EBA;whiteSpace=wrap;html=1;" vertex="1" parent="3rZMmuK3PUWSVSzUeQz1-8">
          <mxGeometry x="15" y="20" width="175" height="250" as="geometry" />
        </mxCell>
        <mxCell id="3rZMmuK3PUWSVSzUeQz1-11" value="Public subnet" style="points=[[0,0],[0.25,0],[0.5,0],[0.75,0],[1,0],[1,0.25],[1,0.5],[1,0.75],[1,1],[0.75,1],[0.5,1],[0.25,1],[0,1],[0,0.75],[0,0.5],[0,0.25]];outlineConnect=0;gradientColor=none;html=1;whiteSpace=wrap;fontSize=12;fontStyle=0;container=1;pointerEvents=0;collapsible=0;recursiveResize=0;shape=mxgraph.aws4.group;grIcon=mxgraph.aws4.group_security_group;grStroke=0;strokeColor=#248814;fillColor=#E9F3E6;verticalAlign=top;align=left;spacingLeft=30;fontColor=#248814;dashed=0;" vertex="1" parent="3rZMmuK3PUWSVSzUeQz1-8">
          <mxGeometry x="27.5" y="60" width="150" height="190" as="geometry" />
        </mxCell>
        <mxCell id="3rZMmuK3PUWSVSzUeQz1-10" value="" style="sketch=0;points=[[0,0,0],[0.25,0,0],[0.5,0,0],[0.75,0,0],[1,0,0],[0,1,0],[0.25,1,0],[0.5,1,0],[0.75,1,0],[1,1,0],[0,0.25,0],[0,0.5,0],[0,0.75,0],[1,0.25,0],[1,0.5,0],[1,0.75,0]];outlineConnect=0;fontColor=#232F3E;gradientColor=#F78E04;gradientDirection=north;fillColor=#D05C17;strokeColor=#ffffff;dashed=0;verticalLabelPosition=bottom;verticalAlign=top;align=center;html=1;fontSize=12;fontStyle=0;aspect=fixed;shape=mxgraph.aws4.resourceIcon;resIcon=mxgraph.aws4.ec2;" vertex="1" parent="3rZMmuK3PUWSVSzUeQz1-11">
          <mxGeometry x="22.5" y="70" width="105" height="105" as="geometry" />
        </mxCell>
        <mxCell id="3rZMmuK3PUWSVSzUeQz1-12" value="" style="sketch=0;outlineConnect=0;fontColor=#232F3E;gradientColor=none;fillColor=#4D27AA;strokeColor=none;dashed=0;verticalLabelPosition=bottom;verticalAlign=top;align=center;html=1;fontSize=12;fontStyle=0;aspect=fixed;pointerEvents=1;shape=mxgraph.aws4.elastic_network_interface;" vertex="1" parent="3rZMmuK3PUWSVSzUeQz1-11">
          <mxGeometry x="70" y="130" width="55" height="55" as="geometry" />
        </mxCell>
        <mxCell id="3rZMmuK3PUWSVSzUeQz1-13" value="" style="sketch=0;outlineConnect=0;fontColor=#232F3E;gradientColor=none;fillColor=#4D27AA;strokeColor=none;dashed=0;verticalLabelPosition=bottom;verticalAlign=top;align=center;html=1;fontSize=12;fontStyle=0;aspect=fixed;pointerEvents=1;shape=mxgraph.aws4.vpn_gateway;" vertex="1" parent="3rZMmuK3PUWSVSzUeQz1-8">
          <mxGeometry x="-20" y="150" width="38" height="38" as="geometry" />
        </mxCell>
        <mxCell id="3rZMmuK3PUWSVSzUeQz1-16" value="VPG" style="text;html=1;strokeColor=none;fillColor=none;align=center;verticalAlign=middle;whiteSpace=wrap;rounded=0;" vertex="1" parent="3rZMmuK3PUWSVSzUeQz1-8">
          <mxGeometry x="-24.75" y="188" width="47.5" height="22" as="geometry" />
        </mxCell>
        <mxCell id="3rZMmuK3PUWSVSzUeQz1-37" value="us-east-1a" style="text;html=1;strokeColor=none;fillColor=none;align=center;verticalAlign=middle;whiteSpace=wrap;rounded=0;" vertex="1" parent="3rZMmuK3PUWSVSzUeQz1-8">
          <mxGeometry x="100" width="60" height="21.94" as="geometry" />
        </mxCell>
        <mxCell id="3rZMmuK3PUWSVSzUeQz1-29" value="10.39.0.0/16" style="text;html=1;strokeColor=none;fillColor=none;align=center;verticalAlign=middle;whiteSpace=wrap;rounded=0;" vertex="1" parent="3rZMmuK3PUWSVSzUeQz1-6">
          <mxGeometry x="110" width="60" height="20" as="geometry" />
        </mxCell>
        <mxCell id="3rZMmuK3PUWSVSzUeQz1-28" value="Nvirginia&amp;nbsp; us-east-1" style="text;html=1;strokeColor=none;fillColor=none;align=center;verticalAlign=middle;whiteSpace=wrap;rounded=0;" vertex="1" parent="3rZMmuK3PUWSVSzUeQz1-1">
          <mxGeometry x="107.5" width="110" height="20" as="geometry" />
        </mxCell>
        <mxCell id="3rZMmuK3PUWSVSzUeQz1-14" value="" style="image;aspect=fixed;html=1;points=[];align=center;fontSize=12;image=img/lib/azure2/compute/Virtual_Machine.svg;" vertex="1" parent="1">
          <mxGeometry x="30" y="-330" width="69" height="64" as="geometry" />
        </mxCell>
        <mxCell id="3rZMmuK3PUWSVSzUeQz1-18" value="" style="image;aspect=fixed;html=1;points=[];align=center;fontSize=12;image=img/lib/azure2/networking/Virtual_Networks.svg;" vertex="1" parent="1">
          <mxGeometry x="20" y="-480" width="67" height="40" as="geometry" />
        </mxCell>
        <mxCell id="3rZMmuK3PUWSVSzUeQz1-19" value="" style="rounded=0;whiteSpace=wrap;html=1;" vertex="1" parent="1">
          <mxGeometry y="-480" width="240" height="300" as="geometry" />
        </mxCell>
        <mxCell id="3rZMmuK3PUWSVSzUeQz1-20" value="" style="rounded=0;whiteSpace=wrap;html=1;" vertex="1" parent="1">
          <mxGeometry x="20" y="-460" width="160" height="250" as="geometry" />
        </mxCell>
        <mxCell id="3rZMmuK3PUWSVSzUeQz1-21" value="" style="image;aspect=fixed;html=1;points=[];align=center;fontSize=12;image=img/lib/azure2/networking/Virtual_Networks.svg;" vertex="1" parent="1">
          <mxGeometry x="20" y="-471.94" width="40" height="23.88" as="geometry" />
        </mxCell>
        <mxCell id="3rZMmuK3PUWSVSzUeQz1-22" value="" style="image;aspect=fixed;html=1;points=[];align=center;fontSize=12;image=img/lib/azure2/compute/Virtual_Machine.svg;" vertex="1" parent="1">
          <mxGeometry x="20" y="-351.75" width="69" height="64" as="geometry" />
        </mxCell>
        <mxCell id="3rZMmuK3PUWSVSzUeQz1-23" value="" style="image;aspect=fixed;html=1;points=[];align=center;fontSize=12;image=img/lib/azure2/networking/Virtual_Network_Gateways.svg;" vertex="1" parent="1">
          <mxGeometry x="160" y="-364.75" width="44.84" height="59.5" as="geometry" />
        </mxCell>
        <mxCell id="3rZMmuK3PUWSVSzUeQz1-24" value="" style="image;aspect=fixed;html=1;points=[];align=center;fontSize=12;image=img/lib/azure2/networking/Local_Network_Gateways.svg;" vertex="1" parent="1">
          <mxGeometry x="420" y="-352" width="43.5" height="43.5" as="geometry" />
        </mxCell>
        <mxCell id="3rZMmuK3PUWSVSzUeQz1-25" value="" style="sketch=0;outlineConnect=0;fontColor=#232F3E;gradientColor=none;fillColor=#4D27AA;strokeColor=none;dashed=0;verticalLabelPosition=bottom;verticalAlign=top;align=center;html=1;fontSize=12;fontStyle=0;aspect=fixed;pointerEvents=1;shape=mxgraph.aws4.router;" vertex="1" parent="1">
          <mxGeometry x="220" y="-352" width="44" height="44" as="geometry" />
        </mxCell>
        <mxCell id="3rZMmuK3PUWSVSzUeQz1-26" value="" style="endArrow=none;html=1;rounded=0;entryX=0.015;entryY=0.513;entryDx=0;entryDy=0;entryPerimeter=0;" edge="1" parent="1" source="3rZMmuK3PUWSVSzUeQz1-25" target="3rZMmuK3PUWSVSzUeQz1-24">
          <mxGeometry width="50" height="50" relative="1" as="geometry">
            <mxPoint x="284" y="-330" as="sourcePoint" />
            <mxPoint x="400" y="-330" as="targetPoint" />
          </mxGeometry>
        </mxCell>
        <mxCell id="3rZMmuK3PUWSVSzUeQz1-27" value="" style="sketch=0;outlineConnect=0;fontColor=#232F3E;gradientColor=none;fillColor=#4D27AA;strokeColor=none;dashed=0;verticalLabelPosition=bottom;verticalAlign=top;align=center;html=1;fontSize=12;fontStyle=0;aspect=fixed;pointerEvents=1;shape=mxgraph.aws4.vpn_connection;" vertex="1" parent="1">
          <mxGeometry x="320" y="-370" width="35.9" height="40" as="geometry" />
        </mxCell>
        <mxCell id="3rZMmuK3PUWSVSzUeQz1-30" value="172.20.0.0/16" style="text;html=1;strokeColor=none;fillColor=none;align=center;verticalAlign=middle;whiteSpace=wrap;rounded=0;" vertex="1" parent="1">
          <mxGeometry x="79.99999999999997" y="-480" width="60" height="30" as="geometry" />
        </mxCell>
        <mxCell id="3rZMmuK3PUWSVSzUeQz1-31" value="Site-Site VPN" style="text;html=1;strokeColor=none;fillColor=none;align=center;verticalAlign=middle;whiteSpace=wrap;rounded=0;" vertex="1" parent="1">
          <mxGeometry x="310" y="-330" width="80" height="20" as="geometry" />
        </mxCell>
        <mxCell id="3rZMmuK3PUWSVSzUeQz1-32" style="edgeStyle=orthogonalEdgeStyle;rounded=0;orthogonalLoop=1;jettySize=auto;html=1;exitX=0.5;exitY=1;exitDx=0;exitDy=0;" edge="1" parent="1" source="3rZMmuK3PUWSVSzUeQz1-31" target="3rZMmuK3PUWSVSzUeQz1-31">
          <mxGeometry relative="1" as="geometry" />
        </mxCell>
        <mxCell id="3rZMmuK3PUWSVSzUeQz1-33" value="VNG" style="text;html=1;strokeColor=none;fillColor=none;align=center;verticalAlign=middle;whiteSpace=wrap;rounded=0;" vertex="1" parent="1">
          <mxGeometry x="130" y="-305.25" width="60" height="20" as="geometry" />
        </mxCell>
        <mxCell id="3rZMmuK3PUWSVSzUeQz1-34" style="edgeStyle=orthogonalEdgeStyle;rounded=0;orthogonalLoop=1;jettySize=auto;html=1;exitX=0.5;exitY=1;exitDx=0;exitDy=0;entryX=0.25;entryY=1;entryDx=0;entryDy=0;" edge="1" parent="1" source="3rZMmuK3PUWSVSzUeQz1-33" target="3rZMmuK3PUWSVSzUeQz1-33">
          <mxGeometry relative="1" as="geometry" />
        </mxCell>
        <mxCell id="3rZMmuK3PUWSVSzUeQz1-35" value="customer GW" style="text;html=1;strokeColor=none;fillColor=none;align=center;verticalAlign=middle;whiteSpace=wrap;rounded=0;" vertex="1" parent="1">
          <mxGeometry x="220" y="-308" width="70" height="30" as="geometry" />
        </mxCell>
        <mxCell id="3rZMmuK3PUWSVSzUeQz1-36" value="Local GW" style="text;html=1;strokeColor=none;fillColor=none;align=center;verticalAlign=middle;whiteSpace=wrap;rounded=0;" vertex="1" parent="1">
          <mxGeometry x="403.5" y="-304.25" width="60" height="14.25" as="geometry" />
        </mxCell>
        <mxCell id="3rZMmuK3PUWSVSzUeQz1-38" value="VM" style="text;html=1;strokeColor=none;fillColor=none;align=center;verticalAlign=middle;whiteSpace=wrap;rounded=0;" vertex="1" parent="1">
          <mxGeometry x="20" y="-290" width="60" height="20" as="geometry" />
        </mxCell>
      </root>
    </mxGraphModel>
  </diagram>
</mxfile>
